Coordinates
version=1
nRows=4
nColumns=124
inDegrees=yes

Units are S.I. units (second, meters, Newtons, ...)
If the header above contains a line with 'inDegrees', this indicates whether rotational values are in degrees (yes) or radians (no).

endheader 
time	pelvis_tilt	pelvis_list	pelvis_rotation	pelvis_tx	pelvis_ty	pelvis_tz	hip_flexion_l	hip_adduction_l	hip_rotation_l	hip_flexion_r	hip_adduction_r	hip_rotation_r	knee_angle_l	knee_angle_r	ankle_angle_l	ankle_angle_r	subtalar_angle_l	subtalar_angle_r	mtp_angle_l	mtp_angle_r	lumbar_extension	lumbar_bending	lumbar_rotation	arm_flex_l	arm_add_l	arm_rot_l	arm_flex_r	arm_add_r	arm_rot_r	elbow_flex_l	elbow_flex_r	glut_med1_l/activation	glut_med2_l/activation	glut_med3_l/activation	glut_min1_l/activation	glut_min2_l/activation	glut_min3_l/activation	semimem_l/activation	semiten_l/activation	bifemlh_l/activation	bifemsh_l/activation	sar_l/activation	add_long_l/activation	add_brev_l/activation	add_mag1_l/activation	add_mag2_l/activation	add_mag3_l/activation	tfl_l/activation	pect_l/activation	grac_l/activation	glut_max1_l/activation	glut_max2_l/activation	glut_max3_l/activation	iliacus_l/activation	psoas_l/activation	quad_fem_l/activation	gem_l/activation	peri_l/activation	rect_fem_l/activation	vas_med_l/activation	vas_int_l/activation	vas_lat_l/activation	med_gas_l/activation	lat_gas_l/activation	soleus_l/activation	tib_post_l/activation	flex_dig_l/activation	flex_hal_l/activation	tib_ant_l/activation	per_brev_l/activation	per_long_l/activation	per_tert_l/activation	ext_dig_l/activation	ext_hal_l/activation	ercspn_l/activation	intobl_l/activation	extobl_l/activation	glut_med1_r/activation	glut_med2_r/activation	glut_med3_r/activation	glut_min1_r/activation	glut_min2_r/activation	glut_min3_r/activation	semimem_r/activation	semiten_r/activation	bifemlh_r/activation	bifemsh_r/activation	sar_r/activation	add_long_r/activation	add_brev_r/activation	add_mag1_r/activation	add_mag2_r/activation	add_mag3_r/activation	tfl_r/activation	pect_r/activation	grac_r/activation	glut_max1_r/activation	glut_max2_r/activation	glut_max3_r/activation	iliacus_r/activation	psoas_r/activation	quad_fem_r/activation	gem_r/activation	peri_r/activation	rect_fem_r/activation	vas_med_r/activation	vas_int_r/activation	vas_lat_r/activation	med_gas_r/activation	lat_gas_r/activation	soleus_r/activation	tib_post_r/activation	flex_dig_r/activation	flex_hal_r/activation	tib_ant_r/activation	per_brev_r/activation	per_long_r/activation	per_tert_r/activation	ext_dig_r/activation	ext_hal_r/activation	ercspn_r/activation	intobl_r/activation	extobl_r/activation	
          0.75956635	         -9.70302055	         -6.69679402	        -11.45016595	          1.00450776	          0.94086257	         -0.00295874	         11.19171118	         -6.38720514	         -0.73721294	         -3.94238786	         10.70223384	        -22.21659838	        -10.89623932	          2.80586831	         10.11505648	         -0.08875199	         -1.64916375	        -18.66040320	          3.97660895	          2.23258442	          1.97781052	          6.37779213	          4.69294003	         -9.04450231	        -13.46714191	         18.69191319	          6.13396855	        -13.46416058	          7.93800594	         13.35609205	         31.22443330	          0.40621760	          0.33411098	          0.34061834	          0.56877745	          0.57518645	          0.49516008	          0.12779738	          0.12580039	          0.10033988	          0.05000749	          0.05001644	          0.05000489	          0.05001305	          0.10341379	          0.12837097	          0.10584363	          0.05002609	          0.05002119	          0.05002212	          0.18114614	          0.12795763	          0.08871564	          0.05000262	          0.05000264	          0.05001488	          0.05004567	          0.18892398	          0.07853031	          0.12098597	          0.11651597	          0.09657058	          0.24450684	          0.25890066	          0.07406080	          0.36312225	          0.23444498	          0.21487125	          0.18450559	          0.05001947	          0.05001175	          0.05004923	          0.06060507	          0.05014431	          0.08703621	          0.05000273	          0.05000577	          0.05000595	          0.05000141	          0.05000096	          0.08039893	          0.05000840	          0.05000286	          0.05000177	          0.05000324	          0.05000164	          0.05000614	          0.05045824	          0.20539543	          0.31440358	          0.11104753	          0.09352273	          0.08517456	          0.49980784	          0.42495521	          0.08651406	          0.05003238	          0.05002893	          0.05005649	          0.17317894	          0.18400329	          0.07591650	          0.05014673	          0.05002973	          0.11527046	          0.20066392	          0.21933267	          0.16778360	          0.05042470	          0.05042460	          0.05042509	          0.05042330	          0.05042431	          0.05042470	          0.05042537	          0.05042533	          0.05042514	          0.05042509	          0.05042516	          0.05042507	          0.12658945	          0.05785809	          0.05000472	
          0.80176448	         -9.46046807	         -7.50232658	         -9.04732564	          1.05649140	          0.94275716	         -0.00512362	          5.02417733	         -6.61191380	          0.43255622	          2.92786803	         12.38845972	        -22.10560750	         -5.35119568	          4.45887942	          8.72358372	         -0.10637734	          0.02413338	        -15.05202469	          6.65750663	          1.27400624	          1.68621409	          6.20853872	          3.84844992	         -8.12196346	        -13.47524185	         14.49076223	          1.81739046	        -13.46976148	          5.94704990	         18.30853518	         24.37308308	          0.32054981	          0.24566014	          0.25626927	          0.45280097	          0.46740605	          0.44489390	          0.08742616	          0.07767614	          0.05894135	          0.05001220	          0.05003061	          0.05000654	          0.05001710	          0.06072095	          0.07538445	          0.06217172	          0.07963851	          0.05002929	          0.05003588	          0.11237710	          0.11076290	          0.05211853	          0.05000442	          0.05000459	          0.05001683	          0.05006144	          0.23975927	          0.05135897	          0.07675699	          0.07760483	          0.06946091	          0.34969694	          0.39146620	          0.06749696	          0.35649461	          0.18643993	          0.14797946	          0.23657218	          0.05001456	          0.05000892	          0.05004559	          0.05002698	          0.05012700	          0.05857281	          0.05000336	          0.05000568	          0.05000174	          0.05000289	          0.05000372	          0.05000884	          0.05000989	          0.05000687	          0.05000100	          0.05000215	          0.05000118	          0.05000958	          0.27840449	          0.20990905	          0.50215821	          0.07459312	          0.05500276	          0.05000877	          0.43821550	          0.42796720	          0.05081817	          0.05002714	          0.05000946	          0.05003372	          0.10170459	          0.11673372	          0.07748110	          0.05099130	          0.16719146	          0.14270132	          0.14695110	          0.16435143	          0.12475147	          0.05042445	          0.05042435	          0.05042511	          0.05042336	          0.05042437	          0.05042472	          0.05042536	          0.05042533	          0.05042516	          0.05042507	          0.05042514	          0.05042504	          0.12115967	          0.06082384	          0.05000648	
          0.84396261	         -9.14781653	         -8.01892317	         -6.42483511	          1.10873934	          0.93925647	         -0.00693985	         -1.31155478	         -6.89097361	          1.40850297	         10.47034101	         12.83038634	        -21.05553130	          0.44390405	          4.94817696	          7.44558318	         -0.14639692	          1.36898890	        -10.20735332	          9.35306616	          0.74740455	          1.50466391	          5.76351592	          2.84786416	         -8.72084450	        -13.50569604	          8.30166576	         -2.62821892	        -13.46919828	          6.46249854	         29.01157024	         17.27674675	          0.21372043	          0.17650290	          0.20949903	          0.40483068	          0.39311523	          0.32653960	          0.05149619	          0.05019152	          0.05002207	          0.30039866	          0.05031448	          0.05000985	          0.05001656	          0.05001845	          0.05003382	          0.05002565	          0.20314798	          0.05004644	          0.05004980	          0.06635346	          0.08091629	          0.05002582	          0.05001506	          0.05000927	          0.05002518	          0.05012276	          0.26026259	          0.05001555	          0.05009705	          0.05009526	          0.05007090	          0.45853876	          0.52909267	          0.05000754	          0.34736626	          0.10950098	          0.08689717	          0.31893159	          0.05008860	          0.05006909	          0.05015254	          0.20062961	          0.05094580	          0.05000861	          0.05000351	          0.05000502	          0.05000234	          0.05000519	          0.05002246	          0.05001199	          0.05001388	          0.05001652	          0.05000081	          0.05000193	          0.05000097	          0.05001016	          0.27936789	          0.21906878	          0.47312165	          0.05045823	          0.05007991	          0.05000287	          0.37330297	          0.25580838	          0.05001745	          0.05000903	          0.05000358	          0.05000346	          0.09665527	          0.10999512	          0.13984893	          0.05695228	          0.16598492	          0.15104058	          0.15990417	          0.17824494	          0.13544737	          0.05042456	          0.05042449	          0.05042514	          0.05042364	          0.05042465	          0.05042489	          0.05042546	          0.05042510	          0.05042495	          0.05042498	          0.05042513	          0.05042510	          0.13195493	          0.06979523	          0.05000686	
          0.88616074	         -8.79639148	         -8.18327479	         -3.73620053	          1.16261006	          0.92979670	         -0.00848264	         -7.63435704	         -7.08286442	          2.18383896	         17.44814430	         12.06339873	        -19.43372134	          5.84030310	          5.28671746	          6.64142204	         -0.12779407	          2.16712713	         -4.94681000	         11.89052760	          0.47479177	          1.55428550	          5.06868470	          1.76309199	        -11.07057490	        -13.47982300	          3.45674116	         -7.84715173	        -13.46611411	          9.97912655	         45.61875242	         11.87544475	          0.19512334	          0.18733428	          0.27696765	          0.30624825	          0.37427924	          0.31511299	          0.07411334	          0.08092345	          0.05003676	          0.53462595	          0.05420003	          0.05001010	          0.05001545	          0.05002231	          0.05003861	          0.05002723	          0.18108106	          0.05004620	          0.05007226	          0.05077752	          0.05038435	          0.05005355	          0.05002135	          0.21107271	          0.05005627	          0.05097505	          0.23807998	          0.05000503	          0.05006910	          0.05006546	          0.05005791	          0.57647938	          0.68338007	          0.05000129	          0.39891907	          0.06436361	          0.05103474	          0.42167359	          0.11252744	          0.05961342	          0.41798281	          0.32380673	          0.29830933	          0.05000248	          0.05000534	          0.05000470	          0.05000498	          0.05000487	          0.05000330	          0.05002669	          0.05002579	          0.05001581	          0.05000088	          0.05000241	          0.05000107	          0.05001375	          0.23166765	          0.32580134	          0.34534111	          0.05021885	          0.05004266	          0.05000319	          0.24662711	          0.17869356	          0.05001967	          0.05000730	          0.05000336	          0.05000297	          0.11283448	          0.12454484	          0.09125616	          0.14031867	          0.22035745	          0.15598537	          0.12418948	          0.13815614	          0.10677570	          0.05042465	          0.05042460	          0.05042503	          0.05042378	          0.05042469	          0.05042484	          0.05042530	          0.05042484	          0.05042471	          0.05042477	          0.05042493	          0.05042492	          0.12541406	          0.08975159	          0.06029480	
